<mxfile host="app.diagrams.net" modified="2021-08-26T16:07:53.128Z" agent="5.0 (Windows NT 10.0; Win64; x64) AppleWebKit/537.36 (KHTML, like Gecko) Chrome/92.0.4515.159 Safari/537.36" etag="hK-vBPX1jL37mCtcdiWd" version="14.9.6" type="github">
  <diagram id="oDc7iPyCUJDpwdeP1VtJ" name="Page-1">
    <mxGraphModel dx="723" dy="383" grid="1" gridSize="10" guides="1" tooltips="1" connect="1" arrows="1" fold="1" page="1" pageScale="1" pageWidth="827" pageHeight="1169" math="0" shadow="0">
      <root>
        <mxCell id="0" />
        <mxCell id="1" parent="0" />
        <mxCell id="uvFq4r9Fc9tAjiOFw0sB-2" value="" style="verticalLabelPosition=bottom;verticalAlign=top;html=1;shape=mxgraph.basic.arc;startAngle=0.4846457218009551;endAngle=0.19931707075672708;" parent="1" vertex="1">
          <mxGeometry x="180" y="100" width="200" height="200" as="geometry" />
        </mxCell>
        <mxCell id="uvFq4r9Fc9tAjiOFw0sB-3" value="" style="verticalLabelPosition=bottom;verticalAlign=top;html=1;shape=mxgraph.basic.arc;startAngle=0.8036565356097337;endAngle=0.5389895651886847;" parent="1" vertex="1">
          <mxGeometry x="370" y="100" width="200" height="200" as="geometry" />
        </mxCell>
        <mxCell id="uvFq4r9Fc9tAjiOFw0sB-4" value="" style="verticalLabelPosition=bottom;verticalAlign=top;html=1;shape=mxgraph.basic.arc;startAngle=0.13964971099264378;endAngle=0.8490694487135049;" parent="1" vertex="1">
          <mxGeometry x="270" y="260" width="200" height="200" as="geometry" />
        </mxCell>
        <mxCell id="uvFq4r9Fc9tAjiOFw0sB-5" value="" style="shape=waypoint;sketch=0;fillStyle=solid;size=6;pointerEvents=1;points=[];fillColor=none;resizable=0;rotatable=0;perimeter=centerPerimeter;snapToPoint=1;" parent="1" vertex="1">
          <mxGeometry x="450" y="180" width="40" height="40" as="geometry" />
        </mxCell>
        <mxCell id="uvFq4r9Fc9tAjiOFw0sB-6" value="" style="shape=waypoint;sketch=0;fillStyle=solid;size=6;pointerEvents=1;points=[];fillColor=none;resizable=0;rotatable=0;perimeter=centerPerimeter;snapToPoint=1;" parent="1" vertex="1">
          <mxGeometry x="260" y="185" width="40" height="40" as="geometry" />
        </mxCell>
        <mxCell id="uvFq4r9Fc9tAjiOFw0sB-7" value="" style="line;strokeWidth=4;html=1;perimeter=backbonePerimeter;points=[];outlineConnect=0;" parent="1" vertex="1">
          <mxGeometry x="340" y="340" width="60" height="10" as="geometry" />
        </mxCell>
        <mxCell id="baB2fB7bYT0ftadQUU51-1" value="" style="verticalLabelPosition=bottom;verticalAlign=top;html=1;shape=mxgraph.basic.arc;startAngle=0.5642245796178464;endAngle=0.434920297753485;" vertex="1" parent="1">
          <mxGeometry x="160" y="10" width="420" height="425" as="geometry" />
        </mxCell>
      </root>
    </mxGraphModel>
  </diagram>
</mxfile>
